# xmcd CD database file
#
# Track frame offsets:
#	150
#	4943
#	28990
#	56358
#	73703
#	96222
#	123664
#	147628
#	180884
#
# Disc length: 2483 seconds
#
# Revision: 0
# Processed by: cddbd v1.5.2PL0 Copyright (c) Steve Scherf et al.
# Submitted via: CDex 1.70beta2
#
DISCID=7e09b109
DTITLE=Osamu Kitajima - Osamu
DYEAR=1977
DGENRE=New Age
TTITLE0=Sui-In
TTITLE1=Frost Flowers
TTITLE2=Hear the Rain, See It Fall
TTITLE3=Endless Steps
TTITLE4=Yesterday and Karma
TTITLE5=Purple Hills and Crystal Streams
TTITLE6=Elemental Spirits
TTITLE7=Fur, Fin and Feather
TTITLE8=Sui-Yo
EXTD=YEAR: 1977
EXTT0=
EXTT1=
EXTT2=
EXTT3=
EXTT4=
EXTT5=
EXTT6=
EXTT7=
EXTT8=
PLAYORDER=
